<svg xmlns="http://www.w3.org/2000/svg" width="20" height="20" viewBox="0 0 20 20">
<path xmlns="http://www.w3.org/2000/svg" d="M10,5 C8.1204373,5 6.4831016,6.03709709 5.62902113,7.57026307 C7.19125259,7.88087203 8.33515204,8.94986818 8.00638589,10.8332998 C7.7700885,12.1869976 7.9535279,12.4842959 9.29686985,13.2661929 C9.87601669,13.6032874 10.2353727,14.0819267 10.3518513,14.6480283 C10.3751038,14.7610385 10.3883905,14.8733379 10.392612,14.9848123 C11.2647863,14.9170676 12.0741842,14.6255395 12.7634505,14.167583 C12.7852682,13.8523938 12.7846185,13.5262392 12.7504747,13.230332 C12.703823,12.8260257 12.6007619,12.5693603 12.516259,12.5087966 C12.3795366,12.4108069 12.2042107,12.3156255 11.8957025,12.1679932 C11.9243654,12.1817094 11.5853352,12.0206405 11.4885736,11.9734451 C10.337503,11.4120109 9.68990581,10.8434954 9.39991688,9.7996859 C8.87838213,7.92243175 9.97752812,6.10064606 12.1478025,5.48351775 C11.497078,5.1735142 10.7688022,5 10,5 Z M11.0057635,9.35355303 C11.1358157,9.82167362 11.4571533,10.1037708 12.2192127,10.475465 C12.3068956,10.5182323 12.6366187,10.6748796 12.6151316,10.6645972 C13.0064166,10.8518412 13.2495688,10.9838443 13.487159,11.1541266 C13.924748,11.4677492 14.1813378,11.9371613 14.3181483,12.5222383 C14.751573,11.7818015 15,10.9199124 15,10 C15,8.85630778 14.6160063,7.8023021 13.9699114,6.95987545 C11.8496808,7.00313494 10.6730213,8.15585422 11.0057635,9.35355303 Z M3.33333333,10 C3.33333333,6.31810167 6.31810167,3.33333333 10,3.33333333 C10.4711489,3.33333333 10.9308825,3.38220795 11.3744073,3.47516375 C12.0317309,2.3910624 13.2229363,1.66666667 14.5833333,1.66666667 C16.6544011,1.66666667 18.3333333,3.34559885 18.3333333,5.41666667 C18.3333333,6.77706372 17.6089376,7.96826908 16.5248363,8.62559265 C16.6177921,9.06911754 16.6666667,9.52885113 16.6666667,10 C16.6666667,13.6818983 13.6818983,16.6666667 10,16.6666667 C9.94109382,16.6666667 9.88236609,16.6659027 9.82382616,16.6643841 C6.20852251,16.5558236 3.33333333,13.61368 3.33333333,10 Z M8.45846056,14.7066261 C6.56589285,13.6050502 5.99281489,12.6762687 6.36454509,10.5467051 C6.50541125,9.73971266 5.96207439,9.27885416 5.06897865,9.16758146 C5.02361244,9.43830022 5,9.71639262 5,10 C5,12.2739295 6.51795804,14.1933209 8.59584118,14.8001412 C8.56014484,14.770497 8.51510489,14.7395961 8.45846056,14.7066261 Z M15.9497488,6.98934501 C16.3889869,6.60738885 16.6666667,6.04445556 16.6666667,5.41666667 C16.6666667,4.26607344 15.7339266,3.33333333 14.5833333,3.33333333 C13.9555444,3.33333333 13.3926111,3.61101312 13.010655,4.05025116 C14.2755693,4.69158332 15.3084167,5.72443074 15.9497488,6.98934501 Z" id="Path-Copy-16"/>
</svg>
