<svg xmlns="http://www.w3.org/2000/svg" width="30" height="22" viewBox="0 0 30 22">
    <path fill="#7143FF" stroke="#7143FF" stroke-width=".5" d="M16.57 20.101c0 .035.034.07.034.07.497.67 1.028 1.022 1.592 1.022h.132c1.161-.106 1.858-1.514 2.322-2.36.066-.14.133-.246.166-.351l7.893-15.104c.331-.74.365-1.338.1-1.831-.3-.493-.863-.74-1.692-.74h-8.059c-1.094 0-1.592.529-2.056 1.374l-2.919 5.562c-.165.317-.066.74.266.916.298.176.696.07.862-.282l2.885-5.528c.332-.598.465-.704.962-.704h8.059c.431 0 .564.07.597.07 0 .036 0 .177-.133.494l-7.893 15.068c-.066.106-.132.212-.199.353-.232.457-.829 1.62-1.26 1.654-.133 0-.365-.14-.564-.457l-4.278-8.028-2.918-5.386c-.432-.951-1.161-1.48-2.09-1.48H2.343c-.563 0-.961.177-1.194.564-.331.599.034 1.303.2 1.655l6.068 11.337c0 .035.034.035.034.07.464.634.961.986 1.525.986h.1c.663-.07 1.26-.634 1.79-1.725l.844-1.849c.166-.352.033-.74-.266-.915-.331-.176-.696-.036-.862.281l-.843 1.849c-.365.775-.663.986-.763.986-.066 0-.232-.07-.464-.423L2.476 5.983c-.033-.07-.066-.14-.1-.176h5.97c.299 0 .63.07.929.74l2.984 5.421c0-.023 1.438 2.688 4.312 8.133z"/>
</svg>
