<svg xmlns="http://www.w3.org/2000/svg" width="20" height="20" viewBox="0 0 20 20">
    

      <path xmlns="http://www.w3.org/2000/svg" d="M11.25,6.66666667 L11.25,8.41727068 L18.9374995,16.5093754 C19.4417773,17.0401942 19.0654976,17.9166667 18.3333333,17.9166667 L1.66666667,17.9166667 C1.01213705,17.9166667 0.61310141,17.1967076 0.960001413,16.6416675 L5.12666808,9.97500088 C5.4530577,9.45277748 6.21360896,9.45277748 6.53999859,9.97500088 L7.3424021,11.2588465 L9.58333333,8.45768245 L9.58333333,1.66283131 C9.58333333,1.20471223 9.95322069,0.833333333 10.4166667,0.833333333 C10.876904,0.833333333 11.25,1.20758849 11.25,1.66283131 L11.25,1.66666667 L15.3778624,1.66666667 C15.8360893,1.66666667 15.9721119,1.95834121 15.6826088,2.31698601 L14.1895211,4.16666667 L15.6826088,6.01634732 C15.9725289,6.37550878 15.8365002,6.66666667 15.3778624,6.66666667 L11.25,6.66666667 Z M8.27853137,12.7566533 L10.461873,16.25 L16.3922405,16.25 L10.470545,10.0166363 L8.27853137,12.7566533 Z M5.83333333,11.9889969 L3.17020637,16.25 L8.4964603,16.25 L5.83333333,11.9889969 Z" id="Combined-Shape"/>
    
</svg>
