<svg xmlns="http://www.w3.org/2000/svg" width="20" height="20" viewBox="0 0 20 20">
<path xmlns="http://www.w3.org/2000/svg" fill="#8B5FFF" d="M14.168 19.167c.46 0 .832.37.832.833 0 .46-.374.833-.832.833h-.783c.376 3.016 2.766 5.406 5.782 5.782v-.783c0-.46.37-.832.833-.832.46 0 .833.374.833.832v.783c3.016-.376 5.406-2.766 5.782-5.782h-.783c-.46 0-.832-.37-.832-.833 0-.46.374-.833.832-.833h.783c-.376-3.016-2.766-5.406-5.782-5.782v.783c0 .46-.37.832-.833.832-.46 0-.833-.374-.833-.832v-.783c-3.016.376-5.406 2.766-5.782 5.782h.783zM20 28.333c-4.602 0-8.333-3.73-8.333-8.333 0-4.602 3.73-8.333 8.333-8.333 4.602 0 8.333 3.73 8.333 8.333 0 4.602-3.73 8.333-8.333 8.333zm-2.198-10.015c.063-.222.296-.453.516-.516l4.633-1.324c.441-.126.697.128.57.57l-1.323 4.634c-.063.222-.296.453-.516.516l-4.633 1.324c-.441.126-.697-.128-.57-.57l1.323-4.634zm1.464.945l1.468 1.477.589-2.06-2.057.583z" transform="translate(-1009 -20) translate(999 10)"/>
</svg>
